<svg width="51" height="51" viewBox="0 0 51 51" fill="none" xmlns="http://www.w3.org/2000/svg">
<g clip-path="url(#clip0_66_5821)">
<path d="M50.4676 2.65671V9.50445H0.531738V2.65671C0.531738 1.48311 1.48311 0.531738 2.65671 0.531738H48.3426C49.5162 0.531738 50.4676 1.48311 50.4676 2.65671Z" fill="#38BFF2"/>
<path d="M50.4687 9.50439V48.3436C50.4687 49.5176 49.5178 50.4685 48.3437 50.4685H2.65671C1.48261 50.4685 0.531738 49.5176 0.531738 48.3436V9.50439H50.4687Z" fill="white"/>
<path d="M46.75 24.1032V14.2854C46.75 13.6986 46.2743 13.2229 45.6875 13.2229H5.31302C4.72622 13.2229 4.25049 13.6986 4.25049 14.2854V24.1032C4.25049 24.69 4.72622 25.1658 5.31302 25.1658H45.6876C46.2743 25.1657 46.75 24.6899 46.75 24.1032Z" fill="#38BFF2"/>
<path d="M23.6622 5.0181C23.6622 5.71497 23.0973 6.27985 22.4005 6.27985H4.98099C4.28412 6.27985 3.71924 5.71497 3.71924 5.0181C3.71924 4.32123 4.28412 3.75635 4.98099 3.75635H22.4005C23.0973 3.75635 23.6622 4.32123 23.6622 5.0181Z" fill="white"/>
<path d="M45.9814 6.31685C46.6987 6.31685 47.2802 5.73536 47.2802 5.01805C47.2802 4.30073 46.6987 3.71924 45.9814 3.71924C45.2641 3.71924 44.6826 4.30073 44.6826 5.01805C44.6826 5.73536 45.2641 6.31685 45.9814 6.31685Z" fill="white"/>
<path d="M40.7617 6.31685C41.479 6.31685 42.0605 5.73536 42.0605 5.01805C42.0605 4.30073 41.479 3.71924 40.7617 3.71924C40.0444 3.71924 39.4629 4.30073 39.4629 5.01805C39.4629 5.73536 40.0444 6.31685 40.7617 6.31685Z" fill="white"/>
<path d="M35.5425 6.31685C36.2598 6.31685 36.8413 5.73536 36.8413 5.01805C36.8413 4.30073 36.2598 3.71924 35.5425 3.71924C34.8251 3.71924 34.2437 4.30073 34.2437 5.01805C34.2437 5.73536 34.8251 6.31685 35.5425 6.31685Z" fill="white"/>
<path d="M31.3437 36.7681V29.9466C31.3437 29.3598 30.868 28.884 30.2812 28.884H20.7188C20.132 28.884 19.6562 29.3598 19.6562 29.9466V36.7681C19.6562 37.3549 20.132 37.8306 20.7188 37.8306H30.2812C30.868 37.8305 31.3437 37.3549 31.3437 36.7681Z" fill="#38BFF2"/>
<path d="M15.9379 36.7681V29.9466C15.9379 29.3598 15.4621 28.884 14.8753 28.884H5.31302C4.72622 28.884 4.25049 29.3598 4.25049 29.9466V36.7681C4.25049 37.3549 4.72622 37.8306 5.31302 37.8306H14.8754C15.4622 37.8305 15.9379 37.3549 15.9379 36.7681Z" fill="#38BFF2"/>
<path d="M46.75 36.7681V29.9466C46.75 29.3598 46.2742 28.884 45.6874 28.884H36.125C35.5382 28.884 35.0625 29.3598 35.0625 29.9466V36.7681C35.0625 37.3549 35.5382 37.8306 36.125 37.8306H45.6874C46.2742 37.8305 46.75 37.3549 46.75 36.7681Z" fill="#38BFF2"/>
<path d="M50.9989 2.65667C50.9989 1.19212 49.8073 0.000488281 48.3427 0.000488281H2.65667C1.19212 0.000488281 0.000488281 1.19212 0.000488281 2.65667V48.3436C0.000488281 49.8082 1.19212 50.9998 2.65667 50.9998H48.3436C49.8082 50.9998 50.9998 49.8082 50.9998 48.3436C50.9999 47.8471 50.999 8.50773 50.9989 2.65667ZM1.06302 2.65667C1.06302 1.77782 1.77792 1.06292 2.65677 1.06292H48.3426C49.2215 1.06292 49.9364 1.77782 49.9364 2.65667V8.973H1.06302V2.65667ZM48.3437 49.9375H2.65667C1.77782 49.9375 1.06292 49.2226 1.06292 48.3437V10.0355H49.9374V48.3437C49.9375 49.2226 49.2226 49.9375 48.3437 49.9375Z" fill="#1A2E35"/>
<path d="M45.6875 12.6917H5.31299C4.43413 12.6917 3.71924 13.4065 3.71924 14.2854V24.103C3.71924 24.9819 4.43413 25.6968 5.31299 25.6968H45.6876C46.5664 25.6968 47.2813 24.9819 47.2813 24.103V14.2854C47.2812 13.4065 46.5663 12.6917 45.6875 12.6917ZM46.2188 24.103C46.2188 24.3961 45.9806 24.6342 45.6876 24.6342H5.31299C5.01984 24.6342 4.78177 24.3961 4.78177 24.103V14.2854C4.78177 13.9922 5.01994 13.7542 5.31299 13.7542H45.6876C45.9807 13.7542 46.2188 13.9923 46.2188 14.2854V24.103Z" fill="#1A2E35"/>
<path d="M22.4005 3.22534H4.98096C3.99213 3.22534 3.18799 4.02949 3.18799 5.01831C3.18799 6.00713 3.99213 6.81128 4.98096 6.81128H22.4004C23.3893 6.81128 24.1934 6.00713 24.1934 5.01831C24.1934 4.02949 23.3894 3.22534 22.4005 3.22534ZM22.4005 5.74875H4.98096C4.57834 5.74875 4.25052 5.42083 4.25052 5.01831C4.25052 4.61579 4.57844 4.28788 4.98096 4.28788H22.4004C22.8031 4.28788 23.1309 4.61579 23.1309 5.01831C23.1309 5.42083 22.8031 5.74875 22.4005 5.74875Z" fill="#1A2E35"/>
<path d="M45.9812 3.18799C44.9722 3.18799 44.1514 4.00927 44.1514 5.01831C44.1514 6.02735 44.9722 6.84813 45.9812 6.84813C46.9902 6.84813 47.8115 6.02745 47.8115 5.01831C47.8115 4.00917 46.9902 3.18799 45.9812 3.18799ZM45.9812 5.7855C45.5579 5.7855 45.2139 5.44155 45.2139 5.01821C45.2139 4.59487 45.5579 4.25042 45.9812 4.25042C46.4045 4.25042 46.749 4.59487 46.749 5.01821C46.749 5.44155 46.4045 5.7855 45.9812 5.7855Z" fill="#1A2E35"/>
<path d="M40.762 3.18799C39.7529 3.18799 38.9316 4.00927 38.9316 5.01831C38.9316 6.02735 39.7529 6.84813 40.762 6.84813C41.771 6.84813 42.5918 6.02745 42.5918 5.01831C42.5918 4.00917 41.771 3.18799 40.762 3.18799ZM40.762 5.7855C40.3386 5.7855 39.9942 5.44155 39.9942 5.01821C39.9942 4.59487 40.3386 4.25042 40.762 4.25042C41.1853 4.25042 41.5293 4.59487 41.5293 5.01821C41.5293 5.44155 41.1853 5.7855 40.762 5.7855Z" fill="#1A2E35"/>
<path d="M35.5422 3.18799C34.5332 3.18799 33.7119 4.00927 33.7119 5.01831C33.7119 6.02735 34.5332 6.84813 35.5422 6.84813C36.5513 6.84813 37.3721 6.02745 37.3721 5.01831C37.3721 4.00917 36.5513 3.18799 35.5422 3.18799ZM35.5422 5.7855C35.1189 5.7855 34.7744 5.44155 34.7744 5.01821C34.7744 4.59487 35.1189 4.25042 35.5422 4.25042C35.9656 4.25042 36.3095 4.59487 36.3095 5.01821C36.3095 5.44155 35.9655 5.7855 35.5422 5.7855Z" fill="#1A2E35"/>
<path d="M15.9378 41.0178H4.25046C3.95681 41.0178 3.71924 41.2554 3.71924 41.549C3.71924 41.8427 3.95681 42.0803 4.25046 42.0803H15.9378C16.2315 42.0803 16.469 41.8427 16.469 41.549C16.469 41.2554 16.2315 41.0178 15.9378 41.0178Z" fill="#1A2E35"/>
<path d="M15.9378 46.2188H4.25046C3.95681 46.2188 3.71924 46.4563 3.71924 46.75C3.71924 47.0436 3.95681 47.2812 4.25046 47.2812H15.9378C16.2315 47.2812 16.469 47.0436 16.469 46.75C16.469 46.4563 16.2315 46.2188 15.9378 46.2188Z" fill="#1A2E35"/>
<path d="M15.9378 43.6184H4.25046C3.95681 43.6184 3.71924 43.856 3.71924 44.1496C3.71924 44.4433 3.95681 44.6808 4.25046 44.6808H15.9378C16.2315 44.6808 16.469 44.4433 16.469 44.1496C16.469 43.856 16.2315 43.6184 15.9378 43.6184Z" fill="#1A2E35"/>
<path d="M31.3436 41.0178H19.6562C19.3626 41.0178 19.125 41.2554 19.125 41.549C19.125 41.8427 19.3626 42.0803 19.6562 42.0803H31.3436C31.6372 42.0803 31.8748 41.8427 31.8748 41.549C31.8748 41.2554 31.6372 41.0178 31.3436 41.0178Z" fill="#1A2E35"/>
<path d="M31.3436 46.2188H19.6562C19.3626 46.2188 19.125 46.4563 19.125 46.75C19.125 47.0436 19.3626 47.2812 19.6562 47.2812H31.3436C31.6372 47.2812 31.8748 47.0436 31.8748 46.75C31.8748 46.4563 31.6372 46.2188 31.3436 46.2188Z" fill="#1A2E35"/>
<path d="M31.3436 43.6184H19.6562C19.3626 43.6184 19.125 43.856 19.125 44.1496C19.125 44.4433 19.3626 44.6808 19.6562 44.6808H31.3436C31.6372 44.6808 31.8748 44.4433 31.8748 44.1496C31.8748 43.856 31.6372 43.6184 31.3436 43.6184Z" fill="#1A2E35"/>
<path d="M46.7498 41.0178H35.0625C34.7688 41.0178 34.5312 41.2554 34.5312 41.549C34.5312 41.8427 34.7688 42.0803 35.0625 42.0803H46.7498C47.0435 42.0803 47.2811 41.8427 47.2811 41.549C47.2811 41.2554 47.0435 41.0178 46.7498 41.0178Z" fill="#1A2E35"/>
<path d="M46.7498 46.2188H35.0625C34.7688 46.2188 34.5312 46.4563 34.5312 46.75C34.5312 47.0436 34.7688 47.2812 35.0625 47.2812H46.7498C47.0435 47.2812 47.2811 47.0436 47.2811 46.75C47.2811 46.4563 47.0435 46.2188 46.7498 46.2188Z" fill="#1A2E35"/>
<path d="M46.7498 43.6184H35.0625C34.7688 43.6184 34.5312 43.856 34.5312 44.1496C34.5312 44.4433 34.7688 44.6808 35.0625 44.6808H46.7498C47.0435 44.6808 47.2811 44.4433 47.2811 44.1496C47.2811 43.856 47.0435 43.6184 46.7498 43.6184Z" fill="#1A2E35"/>
<path d="M30.2811 28.353H20.7187C19.8399 28.353 19.125 29.0679 19.125 29.9468V36.7684C19.125 37.6473 19.8399 38.3622 20.7187 38.3622H30.2811C31.16 38.3622 31.8749 37.6473 31.8749 36.7684V29.9468C31.8749 29.0679 31.16 28.353 30.2811 28.353ZM30.8125 36.7684C30.8125 37.0616 30.5743 37.2996 30.2812 37.2996H20.7188C20.4257 37.2996 20.1876 37.0615 20.1876 36.7684V29.9468C20.1876 29.6536 20.4258 29.4156 20.7188 29.4156H30.2812C30.5744 29.4156 30.8125 29.6537 30.8125 29.9468V36.7684Z" fill="#1A2E35"/>
<path d="M14.8754 28.353H5.31299C4.43413 28.353 3.71924 29.0679 3.71924 29.9468V36.7684C3.71924 37.6473 4.43413 38.3622 5.31299 38.3622H14.8754C15.7542 38.3622 16.4691 37.6473 16.4691 36.7684V29.9468C16.469 29.0679 15.7541 28.353 14.8754 28.353ZM15.4066 36.7684C15.4066 37.0616 15.1684 37.2996 14.8754 37.2996H5.31299C5.01984 37.2996 4.78177 37.0615 4.78177 36.7684V29.9468C4.78177 29.6536 5.01994 29.4156 5.31299 29.4156H14.8754C15.1685 29.4156 15.4066 29.6537 15.4066 29.9468V36.7684Z" fill="#1A2E35"/>
<path d="M45.6874 28.353H36.125C35.2461 28.353 34.5312 29.0679 34.5312 29.9468V36.7684C34.5312 37.6473 35.2461 38.3622 36.125 38.3622H45.6874C46.5663 38.3622 47.2812 37.6473 47.2812 36.7684V29.9468C47.2812 29.0679 46.5663 28.353 45.6874 28.353ZM46.2187 36.7684C46.2187 37.0616 45.9806 37.2996 45.6875 37.2996H36.1251C35.8319 37.2996 35.5939 37.0615 35.5939 36.7684V29.9468C35.5939 29.6536 35.832 29.4156 36.1251 29.4156H45.6875C45.9807 29.4156 46.2187 29.6537 46.2187 29.9468V36.7684Z" fill="#1A2E35"/>
</g>
<defs>
<clipPath id="clip0_66_5821">
<rect width="51" height="51" fill="white"/>
</clipPath>
</defs>
</svg>
